<svg width="500" height="78" viewBox="0 0 500 78" fill="none" xmlns="http://www.w3.org/2000/svg">
<path d="M33.1878 54.3776C33.8757 56.1058 33.6576 58.3205 33.322 59.6628C32.7348 62.0454 31.1241 64.4783 26.359 64.4783C21.8959 64.4783 19.1778 61.8944 19.1778 58.0018V51.0722H-6.10352e-05V56.5756C-6.10352e-05 72.5152 12.5335 77.3306 25.9731 77.3306C38.8925 77.3306 49.5301 72.9346 51.2247 61.0051C52.0972 54.8306 51.4596 50.787 51.1576 49.2937C48.1375 34.3273 21.0234 29.8642 18.9932 21.4917C18.7113 20.2568 18.6878 18.9766 18.9261 17.7334C19.4294 15.4347 20.9898 12.9347 25.4529 12.9347C29.6475 12.9347 32.0804 15.5186 32.0804 19.4112V23.8407H49.916V18.8072C49.916 3.23673 35.9395 0.803848 25.8388 0.803848C13.1207 0.803848 2.73483 5.01525 0.838864 16.6763C0.335509 19.8642 0.251617 22.7166 1.00665 26.3072C4.11067 40.9045 29.4965 45.1326 33.1878 54.3776Z" fill="black"/>
<path d="M76.5099 3.08572L63.2549 74.5454H82.5669L92.3488 9.69645H92.7515L102.265 74.5454H121.476L108.305 3.06894L76.5099 3.08572ZM184.48 3.08572L175.671 57.7165H175.251L166.459 3.08572H137.315L135.738 74.5454H153.624L154.06 10.3005H154.463L166.392 74.5454H184.53L196.476 10.3173H196.862L197.315 74.5454H215.184L213.607 3.06894L184.48 3.08572Z" fill="black"/>
<path d="M265.52 54.2434C266.208 55.9716 265.989 58.1863 265.654 59.5286C265.067 61.9111 263.456 64.344 258.691 64.344C254.228 64.344 251.51 61.7601 251.51 57.8675V50.938H232.332V56.4414C232.332 72.3809 244.865 77.1964 258.305 77.1964C271.224 77.1964 281.862 72.8004 283.557 60.8709C284.429 54.6964 283.791 50.6528 283.489 49.1595C280.469 34.1931 253.355 29.73 251.325 21.3575C251.043 20.1226 251.02 18.8424 251.258 17.5991C251.761 15.3005 253.322 12.8005 257.785 12.8005C261.979 12.8005 264.412 15.3844 264.412 19.277V23.7065H282.248V18.6729C282.248 3.1025 268.271 0.669617 258.171 0.669617C245.453 0.669617 235.067 4.88102 233.171 16.5421C232.667 19.73 232.583 22.5823 233.339 26.1729C236.443 40.7702 261.828 44.9984 265.52 54.2434Z" fill="black"/>
<path d="M325.503 63.8407C330.469 63.8407 331.996 60.4179 332.348 58.6729C332.499 57.9011 332.516 56.8608 332.516 55.938V3.08573H350.603V54.3105C350.607 55.8776 350.551 57.4447 350.436 59.0085C349.177 72.3474 338.64 76.6762 325.503 76.6762C312.348 76.6762 301.812 72.3474 300.553 59.0085C300.503 58.3038 300.369 55.6192 300.385 54.3105V3.06895H318.473V55.9212C318.456 56.8608 318.489 57.9011 318.64 58.6729C318.976 60.4179 320.52 63.8407 325.503 63.8407ZM412.885 3.08573L413.858 59.1762H413.472L397.03 3.08573H370.52V73.7903H388.087L387.113 15.7535H387.499L405.134 73.7903H430.587V3.08573H412.885ZM474.546 63.1024C479.714 63.1024 481.526 59.8306 481.845 57.9011C481.996 57.1125 482.013 56.1058 482.013 55.2165V44.8139H474.68V34.4112H499.999V53.5722C499.999 54.9145 499.966 55.8877 499.748 58.2702C498.573 71.2903 487.281 75.938 474.613 75.938C461.946 75.938 450.67 71.2903 449.479 58.2702C449.278 55.8877 449.227 54.9145 449.227 53.5722V23.5052C449.227 22.23 449.395 19.9817 449.53 18.8072C451.123 5.43472 461.946 1.13942 474.613 1.13942C487.281 1.13942 498.389 5.40116 499.697 18.7904C499.932 21.0723 499.865 23.4884 499.865 23.4884V25.8877H481.845V21.8776C481.845 21.8776 481.845 20.1998 481.627 19.1595C481.291 17.5823 479.949 13.9582 474.479 13.9582C469.278 13.9582 467.751 17.3978 467.365 19.1595C467.147 20.0991 467.063 21.3743 467.063 22.532V55.1997C467.063 56.1058 467.097 57.1125 467.231 57.9179C467.566 59.8306 469.378 63.1024 474.546 63.1024Z" fill="black"/>
</svg>
